<svg width="238.19mm" height="238.02mm" version="1.1" viewBox="0 0 238.19 238.02" xmlns="http://www.w3.org/2000/svg" xmlns:xlink="http://www.w3.org/1999/xlink">
 <defs>
  <linearGradient id="c" x1="-213.73" x2="-213.73" y1="224.49" y2="367.4" gradientTransform="translate(504.07 -163.84)" gradientUnits="userSpaceOnUse">
   <stop stop-color="#a292ff" stop-opacity=".99608" offset="0"/>
   <stop stop-color="#d76bff" stop-opacity=".99608" offset="1"/>
  </linearGradient>
  <linearGradient id="d" x1="-328.74" x2="-328.74" y1="224.99" y2="326.94" gradientTransform="translate(504.07 -163.84)" gradientUnits="userSpaceOnUse">
   <stop stop-color="#44d7f0" stop-opacity=".99608" offset="0"/>
   <stop stop-color="#259bee" stop-opacity=".99608" offset="1"/>
  </linearGradient>
  <linearGradient id="a" x1="-378.77" x2="-235.43" y1="160.72" y2="160.72" gradientTransform="translate(504.07 -163.84)" gradientUnits="userSpaceOnUse">
   <stop stop-color="#61ef1d" stop-opacity=".99608" offset="0"/>
   <stop stop-color="#5ef564" stop-opacity=".99608" offset="1"/>
  </linearGradient>
  <linearGradient id="b" x1="-192.12" x2="-192.12" y1="131.91" y2="232.49" gradientTransform="translate(504.07 -163.84)" gradientUnits="userSpaceOnUse">
   <stop stop-color="#f09819" stop-opacity=".99608" offset="0"/>
   <stop stop-color="#f77838" stop-opacity=".99608" offset="1"/>
  </linearGradient>
 </defs>
 <g transform="translate(-124.35 53.71)">
  <path d="m225.42 81.728c-.25442.26165-2.0541 4.9526-2.8779 7.5008-2.5492 7.8856-3.6332 14.676-3.6494 22.861-.0244 12.298 2.6185 22.88 8.4315 33.76 7.4136 13.875 18.231 24.362 32.22 31.237 4.5427 2.2325 8.0088 3.5512 12.17 4.6297h.00052c1.6004.41472 2.9992.75936 3.1083.76636.10913.007.19844-2.3098.19844-5.1475v-5.1594h9.7896l-.00104-9.9219 4.763.0775 4.763.078v-9.8128h9.525v-9.525h9.525v-9.525h9.5147l.15606-.62167c.0859-.34204.11802-2.545.0713-4.8953l-.0848-4.2731h4.9609l4.9609.00052v-9.525h9.525v-10.319h9.7896v-9.525h3.9688c2.9996 0 3.9677-.0808 3.9667-.33073-.003-.58829-1.0121-4.5193-1.5761-6.1412-.69807-2.0075-2.1515-5.1697-2.3761-5.1697-.0944 0-.64225.48639-1.2175 1.0811-2.0859 2.1564-6.9441 6.314-10.386 8.8884-5.698 4.2612-11.727 7.8463-17.079 10.156l-2.9492 1.2728-.0724 4.9056-.0718 4.9051-4.823.0718-4.8224.0724-.0723 4.823-.0718 4.823-9.8242.1436.0336 4.8286.0336 4.8286h-9.8097v9.7896h-10.054v9.2604h-19.579v-9.525h19.315v-9.525h-9.7896v-9.7896h-9.525v9.7896h-10.319v-9.7896h10.319v-9.525h9.8413l-.092 4.7625-.092 4.763 4.9609-.00051h4.9609v9.7896h10.053v-9.7896h9.525v-9.7896h-9.525l-.00052-1.7859-.001-1.7859-3.637-.0739c-20.28-.4121-38.102-6.5112-54.172-18.538-2.8824-2.1573-4.5516-3.5662-8.9354-7.5417-1.5806-1.4334-2.9147-2.5644-2.9642-2.5135zm126.86 22.185v10.319h9.525v-10.319h-4.7625zm-47.36-9.525v9.525h9.7896v-9.525h-4.8948z" fill="url(#c)"/>
  <path d="m187.97 183.93c-16.2-1.9348-30.766-9.0463-42.652-20.824-9.0327-8.9506-16.189-21.7-19.114-34.053-1.3862-5.8547-1.8323-9.9371-1.8504-16.933-.0103-3.9889.11486-7.3982.32538-8.8635 2.4294-16.91 9.2801-30.856 20.801-42.346 10.078-10.05 21.704-16.333 35.97-19.439 5.9391-1.2929 10.091-1.6663 16.705-1.5023 7.5464.1871 11.763.83869 18.653 2.8822 2.3569.69905 8.8993 3.2059 9.2351 3.5386.0589.0583-.89532 1.1493-2.1204 2.4244-6.3472 6.6064-12.609 15.967-16.54 24.724-3.8391 8.5533-6.6726 18.69-7.8997 28.262-.60513 4.7203-.8085 13.372-.41982 17.859 1.7744 20.485 10.924 40.842 25.007 55.636 1.2851 1.35 2.2902 2.4939 2.2335 2.5419-.0567.048-1.6642.69807-3.5724 1.4446-6.4959 2.5413-13.032 4.1162-19.908 4.797-3.7194.36828-11.148.29384-14.855-.14885z" fill="url(#d)"/>
  <path d="m261.79 46.814c-.95705-1.0918-5.3448-5.0515-7.5319-6.7972-4.9486-3.9498-9.4655-6.7914-16.016-10.075-14.181-7.11-28.327-10.38-43.307-10.012-22.998.56518-43.663 8.9909-60.758 24.773-1.502 1.3866-2.695 2.2986-2.8296 2.1631-.30664-.3085-2.4483-5.8843-3.0372-7.9072-2.3081-7.929-3.2115-15.009-2.9678-23.258.17108-5.791.60536-9.0262 1.9391-14.445 2.0449-8.3086 5.9919-16.844 11.005-23.797 10.81-14.995 25.477-25.029 42.541-29.104 6.059-1.4469 8.6707-1.7154 16.669-1.7137 7.6452.002 11.046.35622 16.404 1.7108 20.188 5.103 38.097 19.597 47.225 38.22 7.2717 14.835 9.2827 30.416 5.959 46.17-.41448 1.9645-1.1327 4.7625-1.596 6.2177-.83522 2.6232-2.8221 7.7662-3.1382 8.1231-.0904.10209-.34279-.0179-.56085-.26667z" fill="url(#a)" fill-opacity=".99608"/>
  <path d="m294.6 87.377v-3.0427h10.319v-10.054h-19.844v15.934l-.8599-.15176c-.47294-.0835-2.7351-.41398-5.0271-.73447l-4.1672-.58271v-4.3986l-4.6307-.0722c-2.5469-.0397-4.6305-.16155-4.6302-.27069s.00049-2.3416.00049-4.9609v-4.7625h4.6366l2.1006-2.9766c8.2476-11.687 14.018-25.929 16.072-39.666.53936-3.6075.6064-5.0358.6064-12.919 0-5.9136-.11931-9.7882-.35849-11.642-2.4193-18.748-10.694-36.262-24.248-51.32-1.6007-1.7784-2.9104-3.2938-2.9104-3.3675 0-.0737.59531-.36452 1.3229-.64617 17.664-6.8379 34.296-7.2389 51.065-1.2313 3.802 1.3622 9.4262 4.0302 12.703 6.0262 19.034 11.594 32.132 31.678 34.911 53.529 2.1354 16.792-1.6809 33.645-10.796 47.678-4.0378 6.2158-10.696 13.511-16.577 18.162-2.4162 1.9109-8.6041 6.1785-9.4035 6.4853-.32827.12597-.38612-.47049-.38612-3.9812v-4.1294h-9.7896v10.054h-9.7896v2.5135c0 1.3824-.0893 2.5152-.19844 2.5172-.10914.002-2.2225.23849-4.6964.52546-2.4739.28697-4.7063.52342-4.9609.52546-.41434.003-.46302-.31616-.46302-3.039z" fill="url(#b)"/>
  <path d="m333.31 123.82v9.7457h9.7457v-9.7457zm9.7457 9.7457v9.7462h9.7462v-9.7462zm9.7462 0h9.7457v-9.7457h-9.7457zm0 9.7462v9.7456h9.7457v-9.7456zm0 9.7456h-9.7462v9.7457h9.7462zm0 9.7457v9.7457h9.7457v-9.7457zm-9.7462 0h-9.7457v9.7457h9.7457zm-9.7457 0v-9.7457h-9.7457v9.7457zm-9.7457 0h-9.7456v9.7457h9.7456zm-9.7456 0v-9.7457h-9.7462v9.7457zm-9.7462 0h-9.7457v9.7457h9.7457zm9.7462-9.7457h9.7456v-9.7456h-9.7456zm9.7456-9.7456h9.7457v-9.7462h-9.7457zm9.7457 0v9.7456h9.7457v-9.7456zm-48.729 29.237v9.7457h9.7457v-9.7457zm19.491 0v9.7457h9.7462v-9.7457zm19.492 0v9.7457h9.7457v-9.7457zm19.491 0v9.7457h9.7462v-9.7457z" fill="#fff" stroke-linecap="round" stroke-linejoin="round" stroke-width=".813" style="font-variation-settings:'opsz' 32, 'wght' 900;paint-order:fill markers stroke"/>
 </g>
</svg>
